ply
format ascii 1.0
element vertex 367
property int x
property int y
property int z
element face 718
property list uchar int vertex_index
end_header
5120 -512 8192
5632 -1536 11776
4096 0 11776
5632 -1024 8192
7680 1024 11776
5632 1536 11776
7680 -1024 11776
-5632 -4608 -11776
-4608 -2560 -11776
-5120 -4096 -11776
-7168 4096 -11776
-5632 4608 -11776
-8192 2048 -11776
-8192 -2048 -11776
-7168 -4096 -11776
-5632 -1536 -11776
-5120 3584 -11776
5120 4096 -5632
4096 4096 -4608
4608 4608 -5120
4608 2560 -8192
3584 -3584 -4608
3072 -3072 -4096
3584 -3072 -4096
3584 -3584 -4096
3584 -3584 -5120
-11264 0 -2560
-11264 -512 -2048
-11264 0 -3072
-11264 512 -2048
10240 -1536 -11776
9728 -3072 -11776
8704 -3584 -11776
9728 3072 -11776
9216 1024 -11776
7168 3072 -11776
4096 -3072 -1024
6144 -4608 1024
4096 -3584 4096
3072 -2560 2048
5120 0 7680
5632 1024 8192
6656 512 8192
11776 512 2560
11264 1024 2560
11776 512 3072
10752 512 1536
9216 1024 1536
9728 1024 1536
8704 1536 5632
9728 1536 4608
9216 1536 4096
5632 4096 -5632
5632 1536 -7168
5120 1024 -8192
5120 1024 -10240
7168 3584 -4096
7680 3072 -4608
7168 3584 -5120
-6656 3072 -10240
-6144 4096 -10752
-5120 0 -9216
-6144 0 -8704
-5632 0 -9216
-8192 -3584 -10240
-6144 -4608 -10752
-5632 -4096 -10752
7168 -2560 -7680
6656 -1536 -6656
6656 -1536 -6144
6144 -2048 -11776
8192 -3584 -10240
7680 -3072 -10240
7168 -3072 -4608
7168 -3584 -5120
7168 -3584 -4096
6656 -3584 -4608
9216 -1536 4096
9728 -1536 4608
8704 -2048 4608
11776 -512 3072
9728 -1536 3072
11776 -512 2560
10240 -512 4096
10240 -1024 4096
9728 -1024 4096
8192 -1536 2560
8704 -1536 2048
8704 -2048 2560
9728 -1536 2048
10240 -1024 2048
10752 -512 1536
10240 -512 1536
9728 -1024 1536
6144 -4096 -5632
5632 -4096 -5120
5632 -4096 -5632
9216 -2560 -10752
8704 -3072 -10752
8704 1024 -10240
8704 3072 -10240
6656 3584 -7680
4096 3584 -4096
4096 3072 -5632
9728 512 512
9728 512 1024
9728 0 512
11264 512 1536
10752 512 512
8704 1536 2048
8192 1536 2560
8704 2048 2560
10752 512 4096
10240 1024 4096
9728 1024 4608
-8704 -2048 -8704
-7168 -2048 -10240
-4608 -2048 512
-3584 -1536 -5120
2560 -3072 -2560
-7168 3072 -8704
-4608 2560 -5632
-7168 2048 -8704
9728 1536 4096
9728 1536 2048
10240 512 5120
8704 2048 3584
8704 1024 1536
9216 1536 1536
11264 512 2048
11264 0 2048
9216 1024 1024
6656 1536 -6144
7168 2560 -7680
7168 2048 -5632
4096 1536 -7680
-5632 3072 -10240
-6144 0 -7680
-7168 0 -7168
-7168 -1536 -7680
-5120 -4096 -11264
5632 -1536 -7168
8192 -3072 -10240
8704 -3072 -10240
8192 -2560 -10240
9728 -512 512
9728 -512 1024
9216 -1024 1536
10240 -1024 1024
11264 -1024 1536
11264 -512 2048
8192 -2048 4096
8704 -2048 3072
9728 -1024 4608
9728 -512 5632
8192 -2048 5120
10752 -1024 2048
11264 0 1024
6656 -3584 -3584
6656 -3584 -7680
5120 -4096 -5632
9216 -2560 -10240
7168 -1024 -10240
-5632 -3072 -10752
3072 3072 -4096
4096 1536 -6144
-11776 512 -5120
-11264 0 -4096
4096 0 -6656
8192 2048 -10240
10240 512 1536
10752 1024 2048
10240 1024 2048
8704 512 6144
9216 0 6144
8704 1024 6144
9728 1024 4096
-6656 -3072 -7680
-6144 -3072 -10240
-7680 -2560 -4608
-9728 512 -2048
-10240 -512 -1536
-9216 1536 -512
-6144 3072 -3072
-8192 2048 -4608
-11776 0 -5120
-11776 -512 -4096
-5120 -3072 -10240
-11776 -512 -2560
-5632 -2048 -10752
8192 2048 4096
11264 0 1536
7168 3072 -10240
7168 1024 -10240
3072 3584 -2048
3072 3584 -2560
4096 -1536 -7680
4096 -4096 -4608
4096 -1536 -6144
5120 -1024 -8192
9728 -2560 -11264
9216 -2048 -10240
8704 -2048 -10240
6656 -3584 -6144
11264 -512 1536
8704 -512 6144
10240 -1024 4608
8704 -1536 5632
8704 -1024 1536
7168 -2560 -5120
9216 -2048 -10752
2560 2560 0
-512 3072 -1024
2048 2048 512
6656 1536 -6656
6656 3584 -6144
4096 4096 -3584
4096 3584 -3584
-6144 1536 -6656
-11776 512 -2560
3072 -3072 -1536
11264 1024 1536
4608 4096 -4096
5632 4096 -5120
6144 4096 -5632
-11776 -512 -2048
3072 -2560 -4608
2560 -2560 0
6144 -1024 -11264
7168 -2048 -5632
4608 -4608 -5120
9216 -1536 1536
8704 -1024 6144
8704 -2048 3584
9216 -1024 1024
2048 -2048 512
3584 3584 -4096
-11264 512 -1024
-11264 0 -1024
6656 3584 -4608
-8704 -1536 -1024
2048 1536 1024
2560 -3072 -3584
1536 0 1024
8192 2048 5120
6656 3584 -3584
7168 3584 -3584
2048 -1536 1024
3072 -3072 -3584
8704 1536 6144
8192 2560 5632
7680 -3584 -3584
7168 -2560 7168
8192 -1024 7680
6656 -2048 7168
7168 -2048 6656
4096 -4608 -2560
4608 3072 3072
5120 4096 1024
4096 3584 0
4096 4096 -512
3584 3072 512
7680 3072 -1536
7168 3072 5120
5632 3584 6144
5120 3072 5632
6656 1536 8192
9216 2560 1536
9216 3072 -512
8192 3072 -1536
8704 3584 0
4608 4096 -3072
5632 4096 -3584
5632 4608 -3584
6144 4608 -2048
6144 -4096 1536
6656 -4096 1536
8704 -3072 512
4096 -4096 -512
7680 -2560 5120
5632 -4608 -3584
7168 -3072 -2560
8704 -1536 -5632
7680 2560 -4608
7168 3072 -2560
4608 2560 5120
4096 2560 5632
7168 3584 -512
8192 3584 -1024
9216 2560 512
6144 4608 1024
4096 3584 4096
7680 1536 7168
3072 3072 1024
2560 0 5632
3072 2048 2560
5120 4096 0
7680 3584 -2048
7680 3072 3584
9216 2560 -512
8704 3072 512
-5632 0 -9728
-5120 512 -9728
-5632 0 -11264
8192 -2560 -2048
8192 -3584 -1024
7680 -3072 -1536
5632 -3584 6144
6144 -2560 5632
9216 -2048 -2048
7168 -3584 -3072
5632 -3584 4608
6656 -1024 8704
5120 -2048 7168
9728 -1536 0
6144 -4608 -2048
-4608 512 -9728
-4608 512 -10752
4096 4608 -1536
8192 3072 2560
8192 3584 -512
7680 4096 1536
8192 3584 2560
10240 512 -1024
10240 0 0
6144 3072 5120
6656 2048 6656
-4608 -512 -9216
-4096 0 -9728
7168 2560 7168
7168 2048 6656
8192 -2560 5632
7168 -3072 6144
9216 1024 -4096
5120 4096 -4096
10240 -512 -1024
5632 -1024 7680
6144 3584 -1024
10752 0 2048
-7680 512 -4608
-7936 256 -4096
-6912 768 -5376
-7424 768 -4864
-6912 -768 -5888
-7168 -768 -5120
-6912 -512 -6144
-6912 -256 -6400
-6400 768 -5888
-6144 1024 -5632
-4864 -768 -5376
-4352 0 -5376
-4864 768 -5376
-5632 -768 -5888
-6656 -256 -6400
-6144 -768 -6144
-7936 0 -4096
-7680 -768 -4608
-7424 -768 -4608
-8192 0 -4608
-7680 0 -5888
-7168 -512 -5888
-6144 0 -6656
-7168 512 -5888
-6144 768 -5888
-4608 0 -5888
-5120 -512 -5888
-5120 512 -5888
3 50 114 113
3 50 113 124
3 358 356 355
3 365 349 352
3 363 366 361
3 366 364 361
3 364 365 361
3 359 362 361
3 362 363 361
3 0 2 41
3 312 1 3
3 312 6 1
3 6 312 42
3 4 6 42
3 41 40 0
3 266 41 42
3 130 338 107
3 171 221 46
3 149 90 91
3 338 130 150
3 326 329 263
3 271 274 273
3 95 76 280
3 194 260 318
3 323 289 324
3 268 299 269
3 271 216 217
3 304 309 314
3 216 273 334
3 329 292 330
3 194 211 293
3 256 227 220
3 256 278 227
3 290 337 296
3 222 334 19
3 197 230 280
3 276 305 277
3 333 262 323
3 259 337 274
3 326 325 264
3 242 226 23
3 253 174 173
3 330 250 263
3 331 155 207
3 332 252 308
3 253 252 255
3 197 280 25
3 294 41 286
3 213 241 294
3 294 286 295
3 259 274 318
3 296 337 259
3 49 244 250
3 298 319 322
3 105 104 289
3 299 323 262
3 290 287 337
3 323 324 335
3 273 216 271
3 334 17 19
3 239 224 223
3 196 54 199
3 158 310 281
3 315 24 280
3 141 214 68
3 76 95 94
3 75 280 76
3 40 294 336
3 275 38 37
3 253 312 254
3 232 205 253
3 305 310 306
3 38 243 39
3 315 281 305
3 40 336 3
3 308 307 311
3 314 309 335
3 106 314 324
3 280 230 95
3 199 214 141
3 213 293 211
3 246 283 56
3 134 333 132
3 321 290 319
3 265 325 291
3 287 288 269
3 262 269 299
3 290 321 287
3 322 290 298
3 284 274 287
3 333 283 262
3 291 295 285
3 317 327 303
3 328 327 317
3 168 54 196
3 295 293 213
3 291 257 295
3 274 337 287
3 292 326 266
3 127 289 300
3 270 300 268
3 245 56 272
3 239 223 334
3 54 53 214
3 281 315 280
3 69 214 282
3 335 309 323
3 313 336 294
3 294 311 307
3 311 38 276
3 277 314 208
3 233 279 276
3 254 313 307
3 305 36 315
3 36 39 278
3 38 311 294
3 39 243 247
3 36 256 315
3 310 251 304
3 282 304 251
3 279 332 308
3 311 276 279
3 305 314 277
3 312 336 313
3 313 294 307
3 314 335 324
3 309 282 323
3 135 54 168
3 134 283 333
3 132 333 214
3 333 282 214
3 333 323 282
3 263 291 325
3 300 289 268
3 104 106 289
3 190 126 298
3 263 190 298
3 302 317 303
3 248 256 242
3 119 256 220
3 292 329 326
3 249 49 250
3 194 318 195
3 332 331 255
3 252 254 308
3 39 247 235
3 250 330 292
3 243 294 241
3 331 207 255
3 232 253 255
3 174 253 205
3 332 279 331
3 195 236 164
3 236 195 271
3 256 119 242
3 316 328 317
3 61 301 327
3 303 327 301
3 295 213 294
3 295 257 293
3 318 274 271
3 297 287 262
3 245 297 262
3 245 284 297
3 266 326 264
3 265 264 325
3 326 263 325
3 106 324 289
3 289 323 299
3 322 319 290
3 287 321 267
3 291 290 257
3 19 18 222
3 318 271 195
3 256 24 315
3 68 214 69
3 305 276 37
3 305 304 314
3 313 254 312
3 279 308 311
3 173 292 253
3 310 305 281
3 37 36 305
3 294 243 38
3 309 304 282
3 308 254 307
3 88 277 86
3 305 306 304
3 229 69 282
3 57 283 134
3 274 284 272
3 127 300 267
3 131 105 289
3 290 263 298
3 250 244 263
3 283 246 262
3 297 284 287
3 261 257 259
3 285 295 286
3 41 294 40
3 293 260 194
3 290 258 257
3 261 260 293
3 291 263 290
3 127 131 289
3 270 269 288
3 267 110 127
3 269 262 287
3 286 265 285
3 284 245 272
3 283 57 56
3 251 229 282
3 75 158 280
3 152 276 277
3 275 276 38
3 233 151 279
3 39 235 278
3 277 208 86
3 37 276 275
3 214 199 54
3 273 274 272
3 269 270 268
3 262 246 245
3 261 259 260
3 258 259 257
3 248 24 256
3 253 254 252
3 23 22 248
3 62 167 186
3 181 225 188
3 58 57 133
3 132 214 133
3 193 53 55
3 59 136 60
3 30 162 201
3 67 144 162
3 32 228 30
3 118 198 226
3 198 25 23
3 198 197 25
3 225 238 219
3 103 236 217
3 133 57 134
3 115 64 179
3 247 243 117
3 183 182 212
3 225 181 238
3 240 179 117
3 182 184 180
3 29 26 219
3 242 119 118
3 124 109 111
3 124 44 172
3 216 222 102
3 182 117 243
3 120 59 10
3 59 12 136
3 62 186 185
3 117 179 177
3 240 117 238
3 210 200 201
3 31 30 200
3 147 231 87
3 79 154 207
3 206 153 125
3 156 149 82
3 32 70 228
3 213 212 241
3 165 121 164
3 193 169 133
3 101 133 169
3 108 107 191
3 243 241 182
3 183 212 121
3 177 118 117
3 242 118 226
3 175 154 125
3 44 112 45
3 182 241 212
3 60 11 10
3 122 12 59
3 189 15 13
3 106 108 148
3 81 79 155
3 62 185 166
3 182 238 117
3 103 18 20
3 139 177 116
3 27 188 28
3 182 237 238
3 120 10 12
3 240 238 181
3 240 181 179
3 175 174 154
3 120 184 183
3 30 228 162
3 70 32 71
3 33 99 34
3 182 180 237
3 184 120 12
3 218 122 121
3 120 122 59
3 13 64 115
3 178 64 66
3 177 139 118
3 126 190 51
3 43 129 221
3 106 105 108
3 108 105 48
3 133 215 58
3 215 133 101
3 237 219 238
3 180 27 29
3 236 103 164
3 8 140 9
3 8 187 163
3 14 7 65
3 121 168 198
3 210 97 200
3 98 142 71
3 67 159 72
3 73 76 74
3 157 148 108
3 80 83 81
3 154 205 232
3 79 78 154
3 83 80 112
3 197 159 160
3 159 196 70
3 196 228 70
3 32 31 97
3 209 69 229
3 162 141 67
3 162 228 196
3 189 187 8
3 117 220 227
3 23 226 198
3 16 11 136
3 211 194 212
3 224 215 52
3 102 222 18
3 131 47 128
3 125 114 50
3 220 117 119
3 179 139 115
3 184 12 122
3 64 13 14
3 194 164 212
3 206 78 153
3 178 177 64
3 118 121 198
3 218 184 122
3 124 112 44
3 108 48 46
3 215 101 52
3 214 53 133
3 212 164 121
3 181 180 184
3 11 60 136
3 212 213 211
3 189 116 187
3 65 9 140
3 162 199 141
3 207 155 79
3 78 206 125
3 154 174 205
3 152 87 81
3 159 197 196
3 72 159 70
3 98 71 32
3 97 31 200
3 30 201 200
3 199 162 196
3 65 7 9
3 8 15 189
3 195 164 194
3 121 120 183
3 133 53 193
3 20 35 55
3 20 55 135
3 20 165 103
3 49 51 190
3 188 27 181
3 183 184 182
3 181 27 180
3 64 177 179
3 138 62 166
3 178 116 177
3 113 124 176
3 174 175 173
3 51 124 111
3 20 135 165
3 121 165 168
3 167 138 166
3 103 165 164
3 65 64 14
3 67 72 144
3 96 160 159
3 93 146 148
3 148 146 106
3 156 81 90
3 155 151 81
3 81 83 85
3 125 154 78
3 153 84 83
3 151 152 81
3 150 82 149
3 148 91 93
3 68 67 141
3 140 66 65
3 116 115 139
3 136 12 16
3 54 135 55
3 133 134 132
3 101 35 20
3 114 125 112
3 121 122 120
3 118 119 117
3 113 114 112
3 101 20 52
3 33 100 99
3 55 35 34
3 97 98 32
3 95 96 94
3 79 81 77
3 84 85 83
3 78 79 77
3 71 72 70
3 65 66 64
3 60 10 59
3 54 55 53
3 17 52 20
3 41 4 42
3 41 5 4
3 2 5 41
3 0 40 3
3 36 38 39
3 37 38 36
3 25 21 23
3 22 23 21
3 18 17 20
3 354 353 361
3 345 343 360
3 147 93 89
3 87 208 147
3 89 231 147
3 236 271 217
3 92 91 90
3 157 204 91
3 306 310 304
3 152 233 276
3 331 279 155
3 300 270 267
3 256 36 278
3 318 260 259
3 285 265 291
3 265 266 264
3 160 96 230
3 203 94 96
3 230 96 95
3 159 203 96
3 93 146 145
3 48 104 105
3 197 160 230
3 18 19 17
3 124 113 112
3 191 157 108
3 91 148 157
3 89 90 81
3 2 1 5
3 5 1 4
3 4 1 6
3 34 35 33
3 31 32 30
3 16 12 11
3 11 12 10
3 14 13 7
3 7 13 9
3 9 13 8
3 8 13 15
3 233 152 151
3 13 116 189
3 116 13 115
3 46 48 47
3 91 147 93
3 170 46 48
3 92 93 91
3 219 166 225
3 225 166 188
3 188 166 186
3 186 166 185
3 66 163 178
3 66 140 163
3 163 140 8
3 61 138 137
3 138 61 62
3 62 61 63
3 72 71 142
3 201 162 202
3 100 192 169
3 169 193 99
3 202 161 201
3 116 178 187
3 99 100 169
3 202 162 161
3 161 162 144
3 161 144 143
3 143 144 142
3 142 144 72
3 248 242 23
3 142 98 143
3 178 163 187
3 268 289 299
3 201 161 210
3 210 161 97
3 128 47 131
3 168 165 135
3 196 198 168
3 217 102 103
3 102 217 216
3 197 198 196
3 18 103 102
3 316 317 302
3 219 237 29
3 180 29 237
3 108 46 107
3 224 239 215
3 244 190 263
3 190 244 49
3 101 192 35
3 169 192 101
3 261 293 257
3 192 100 35
3 35 100 33
3 251 73 229
3 251 76 73
3 292 173 249
3 266 42 292
3 112 80 45
3 255 252 332
3 330 263 329
3 209 73 74
3 334 223 17
3 334 222 216
3 223 224 17
3 155 279 151
3 94 203 76
3 280 158 281
3 61 63 301
3 62 138 167
3 138 62 137
3 137 62 61
3 61 62 63
3 321 319 267
3 267 319 126
3 126 319 298
3 127 109 128
3 127 110 109
3 109 110 111
3 111 267 126
3 111 110 267
3 310 75 251
3 76 203 74
3 310 158 75
3 249 175 49
3 88 152 277
3 87 152 88
3 235 227 278
3 248 22 24
3 24 22 21
3 320 288 287
3 270 288 320
3 245 246 56
3 215 239 58
3 58 239 56
3 334 273 272
3 150 129 82
3 82 129 43
3 90 89 92
3 92 89 93
3 234 146 93
3 82 43 80
3 80 43 45
3 107 46 221
3 149 91 204
3 91 93 147
3 48 127 128
3 47 48 46
3 150 204 338
3 111 126 51
3 57 58 56
3 221 129 107
3 107 129 130
3 204 150 149
3 157 191 204
3 170 128 172
3 172 128 124
3 105 131 48
3 124 128 109
3 124 51 123
3 123 51 50
3 50 51 49
3 81 87 89
3 89 87 231
3 78 77 81
3 114 113 176
3 221 171 44
3 171 172 44
3 127 48 131
3 145 146 314
3 314 106 145
3 153 78 85
3 85 78 81
3 145 106 93
3 104 48 106
3 85 84 153
3 149 156 90
3 3 336 312
3 234 93 208
3 341 342 184
3 181 339 340
3 342 339 184
3 184 339 181
3 139 345 346
3 344 343 179
3 345 139 179
3 348 121 351
3 121 350 351
3 349 350 118
3 118 350 121
3 353 354 139
3 139 354 352
3 346 353 139
3 352 349 139
3 139 349 118
3 356 357 179
3 179 357 344
3 356 179 355
3 355 179 181
3 340 355 181
3 362 359 342
3 342 359 339
3 339 359 358
3 348 363 347
3 362 347 363
3 362 342 347
3 350 349 364
3 364 349 365
3 353 346 361
3 361 346 359
3 345 360 346
3 346 360 359
3 357 356 360
3 360 356 359
3 359 356 358
3 3 1 0
3 0 1 2
3 27 28 29
3 29 28 26
3 156 82 81
3 81 82 80
3 112 125 83
3 83 125 153
3 49 175 50
3 50 175 125
3 221 44 43
3 43 44 45
3 99 55 34
3 209 67 69
3 69 67 68
3 67 209 159
3 159 209 203
3 161 143 97
3 97 143 98
3 209 74 203
3 117 227 247
3 247 227 235
3 167 28 186
3 186 28 188
3 255 207 232
3 232 207 154
3 303 63 302
3 320 267 270
3 290 296 258
3 258 296 259
3 292 249 250
3 24 25 280
3 267 320 287
3 208 88 86
3 316 302 61
3 61 302 63
3 316 61 328
3 328 61 327
3 286 41 265
3 265 41 266
3 334 272 239
3 239 272 56
3 146 234 314
3 314 234 208
3 170 172 46
3 46 172 171
3 204 107 338
3 312 253 42
3 42 253 292
3 347 341 218
3 218 341 184
3 348 347 121
3 121 347 218
3 351 350 366
3 366 350 364
3 348 351 363
3 363 351 366
3 354 361 352
3 352 361 365
3 355 340 358
3 358 340 339
3 357 360 344
3 344 360 343
